[Header]
FileType HTR
DataType HTRS
FileVersion 1
NumSegments 64
NumFrames 4
DataFrameRate 24
EulerRotationOrder ZYX
CalibrationUnits mm
RotationUnits Degrees
GlobalAxisofGravity Y
BoneLengthAxis Y
ScaleFactor 1.0
[SegmentNames&Hierarchy]
Hips	GLOBAL
Spine	Hips
Spine1	Spine
Spine2	Spine1
Neck	Spine2
Head	Neck
LeftEye	Head
RightEye	Head
LeftShoulder	Spine2
LeftArm	LeftShoulder
LeftForeArm	LeftArm
LeftHand	LeftForeArm
LeftHandThumb1	LeftHand
LeftHandThumb2	LeftHandThumb1
LeftHandThumb3	LeftHandThumb2
LeftHandThumb4	LeftHandThumb3
LeftHandIndex1	LeftHand
LeftHandIndex2	LeftHandIndex1
LeftHandIndex3	LeftHandIndex2
LeftHandIndex4	LeftHandIndex3
LeftHandMiddle1	LeftHand
LeftHandMiddle2	LeftHandMiddle1
LeftHandMiddle3	LeftHandMiddle2
LeftHandMiddle4	LeftHandMiddle3
LeftHandRing1	LeftHand
LeftHandRing2	LeftHandRing1
LeftHandRing3	LeftHandRing2
LeftHandRing4	LeftHandRing3
LeftHandPinky1	LeftHand
LeftHandPinky2	LeftHandPinky1
LeftHandPinky3	LeftHandPinky2
LeftHandPinky4	LeftHandPinky3
RightShoulder	Spine2
RightArm	RightShoulder
RightForeArm	RightArm
RightHand	RightForeArm
RightHandPinky1	RightHand
RightHandPinky2	RightHandPinky1
RightHandPinky3	RightHandPinky2
RightHandPinky4	RightHandPinky3
RightHandRing1	RightHand
RightHandRing2	RightHandRing1
RightHandRing3	RightHandRing2
RightHandRing4	RightHandRing3
RightHandMiddle1	RightHand
RightHandMiddle2	RightHandMiddle1
RightHandMiddle3	RightHandMiddle2
RightHandMiddle4	RightHandMiddle3
RightHandIndex1	RightHand
RightHandIndex2	RightHandIndex1
RightHandIndex3	RightHandIndex2
RightHandIndex4	RightHandIndex3
RightHandThumb1	RightHand
RightHandThumb2	RightHandThumb1
RightHandThumb3	RightHandThumb2
RightHandThumb4	RightHandThumb3
LeftUpLeg	Hips
LeftLeg	LeftUpLeg
LeftFoot	LeftLeg
LeftToeBase	LeftFoot
RightUpLeg	Hips
RightLeg	RightUpLeg
RightFoot	RightLeg
RightToeBase	RightFoot
[BasePosition]
Hips	0	0	0	0	0	0	1
Spine	0	0	0	0	0	0	1
Spine1	0	0	0	0	0	0	1
Spine2	0	0	0	0	0	0	1
Neck	0	0	0	0	0	0	1
Head	0	0	0	0	0	0	1
LeftEye	0	0	0	0	0	0	1
RightEye	0	0	0	0	0	0	1
LeftShoulder	0	0	0	0	0	0	1
LeftArm	0	0	0	0	0	0	1
LeftForeArm	0	0	0	0	0	0	1
LeftHand	0	0	0	0	0	0	1
LeftHandThumb1	0	0	0	0	0	0	1
LeftHandThumb2	0	0	0	0	0	0	1
LeftHandThumb3	0	0	0	0	0	0	1
LeftHandThumb4	0	0	0	0	0	0	1
LeftHandIndex1	0	0	0	0	0	0	1
LeftHandIndex2	0	0	0	0	0	0	1
LeftHandIndex3	0	0	0	0	0	0	1
LeftHandIndex4	0	0	0	0	0	0	1
LeftHandMiddle1	0	0	0	0	0	0	1
LeftHandMiddle2	0	0	0	0	0	0	1
LeftHandMiddle3	0	0	0	0	0	0	1
LeftHandMiddle4	0	0	0	0	0	0	1
LeftHandRing1	0	0	0	0	0	0	1
LeftHandRing2	0	0	0	0	0	0	1
LeftHandRing3	0	0	0	0	0	0	1
LeftHandRing4	0	0	0	0	0	0	1
LeftHandPinky1	0	0	0	0	0	0	1
LeftHandPinky2	0	0	0	0	0	0	1
LeftHandPinky3	0	0	0	0	0	0	1
LeftHandPinky4	0	0	0	0	0	0	1
RightShoulder	0	0	0	0	0	0	1
RightArm	0	0	0	0	0	0	1
RightForeArm	0	0	0	0	0	0	1
RightHand	0	0	0	0	0	0	1
RightHandPinky1	0	0	0	0	0	0	1
RightHandPinky2	0	0	0	0	0	0	1
RightHandPinky3	0	0	0	0	0	0	1
RightHandPinky4	0	0	0	0	0	0	1
RightHandRing1	0	0	0	0	0	0	1
RightHandRing2	0	0	0	0	0	0	1
RightHandRing3	0	0	0	0	0	0	1
RightHandRing4	0	0	0	0	0	0	1
RightHandMiddle1	0	0	0	0	0	0	1
RightHandMiddle2	0	0	0	0	0	0	1
RightHandMiddle3	0	0	0	0	0	0	1
RightHandMiddle4	0	0	0	0	0	0	1
RightHandIndex1	0	0	0	0	0	0	1
RightHandIndex2	0	0	0	0	0	0	1
RightHandIndex3	0	0	0	0	0	0	1
RightHandIndex4	0	0	0	0	0	0	1
RightHandThumb1	0	0	0	0	0	0	1
RightHandThumb2	0	0	0	0	0	0	1
RightHandThumb3	0	0	0	0	0	0	1
RightHandThumb4	0	0	0	0	0	0	1
LeftUpLeg	0	0	0	0	0	0	1
LeftLeg	0	0	0	0	0	0	1
LeftFoot	0	0	0	0	0	0	1
LeftToeBase	0	0	0	0	0	0	1
RightUpLeg	0	0	0	0	0	0	1
RightLeg	0	0	0	0	0	0	1
RightFoot	0	0	0	0	0	0	1
RightToeBase	0	0	0	0	0	0	1
[Hips]
10	64.93468475	904.7277832	-59.02453995	23.90111542	-23.51524734	-6.741603374	1.0
11	73.52420044	854.3585815	-71.7082901	29.11822128	-23.19415092	-8.459783554	1.0
12	81.95797729	807.4456177	-79.43811035	33.10601425	-21.87724113	-9.147203445	1.0
13	89.01260376	770.0135498	-81.131073	35.28305435	-20.65394211	-9.020996094	1.0
[Spine]
10	0	101.8159943	1.315000057	8.731428146	-3.121454716	0.5065738559	1.0
11	0	101.8159943	1.315000057	9.945968628	-4.241407871	0.9489856362	1.0
12	0	101.8159943	1.315000057	10.55377293	-4.494579792	1.466491461	1.0
13	0	101.8159943	1.315000057	10.74769878	-4.343786716	1.866407156	1.0
[Spine1]
10	0	100.8349991	-10.00800037	3.357725143	-1.429211497	0.9836384058	1.0
11	0	100.8349991	-10.00800037	3.810559034	-1.356740236	0.9860634208	1.0
12	0	100.8349991	-10.00800037	4.067405224	-0.8621547818	0.9591993093	1.0
13	0	100.8349991	-10.00800037	4.169344425	-0.5026770234	0.917827189	1.0
[Spine2]
10	0	91	-13.73399925	3.327612638	-1.426465631	0.9925449491	1.0
11	0	91	-13.73399925	3.775779486	-1.371673465	0.9580265284	1.0
12	0	91	-13.73399925	4.030566692	-0.898232758	0.883468926	1.0
13	0	91	-13.73399925	4.131671906	-0.5581214428	0.8180062771	1.0
[Neck]
10	0	166.7169952	-25.16200066	-5.179941177	3.839422703	3.16635108	1.0
11	0	166.7169952	-25.16200066	-6.595087051	4.125966072	3.547081709	1.0
12	0	166.7169952	-25.16200066	-8.282570839	3.874665737	4.351466179	1.0
13	0	166.7169952	-25.16200066	-10.33864498	3.607562304	5.687059402	1.0
[Head]
10	0	96.17900085	16.84999847	-28.55704308	17.3098793	-8.43918705	1.0
11	0	96.17900085	16.84999847	-36.50260925	17.66618919	-10.6541996	1.0
12	0	96.17900085	16.84999847	-43.38399887	16.46694183	-10.6904211	1.0
13	0	96.17900085	16.84999847	-47.85587311	15.25883102	-9.29144001	1.0
[LeftEye]
10	30.6760006	64.09500122	92.83599854	0	0	0	1.0
11	30.6760006	64.09500122	92.83599854	0	0	0	1.0
12	30.6760006	64.09500122	92.83599854	0	0	0	1.0
13	30.6760006	64.09500122	92.83599854	0	0	0	1.0
[RightEye]
10	-30.6760006	64.09500122	92.83499908	0	0	0	1.0
11	-30.6760006	64.09500122	92.83499908	0	0	0	1.0
12	-30.6760006	64.09500122	92.83499908	0	0	0	1.0
13	-30.6760006	64.09500122	92.83499908	0	0	0	1.0
[LeftShoulder]
10	45.70400238	109.4599991	-26.28000069	5.183039188	-20.23277283	-8.82711792	1.0
11	45.70400238	109.4599991	-26.28000069	5.665653229	-21.42631912	-10.38646126	1.0
12	45.70400238	109.4599991	-26.28000069	5.93633604	-22.60053444	-10.92925549	1.0
13	45.70400238	109.4599991	-26.28000069	5.790863991	-23.79408264	-9.754837036	1.0
[LeftArm]
10	105.923996	-5.24600029	-22.32099915	12.63348293	-23.65826035	-44.59483719	1.0
11	105.923996	-5.24600029	-22.32099915	9.787470818	-32.3616333	-35.49498749	1.0
12	105.923996	-5.24600029	-22.32099915	15.15449047	-43.07761765	-30.45144844	1.0
13	105.923996	-5.24600029	-22.32099915	29.63962364	-52.79983139	-33.75499344	1.0
[LeftForeArm]
10	278.414978	-0.0009999999311	0	-1.078284185e-05	-16.73147964	-0.0002050229232	1.0
11	278.414978	-0.0009999999311	0	-4.569184966e-06	-26.93868256	-0.0002095951349	1.0
12	278.414978	-0.0009999999311	0	-4.617944796e-06	-41.46887207	-0.0001894391462	1.0
13	278.414978	-0.0009999999311	0	1.504117699e-05	-53.2988205	-0.0002209248341	1.0
[LeftHand]
10	283.2879944	0	0	-31.02776718	19.10128975	16.34912872	1.0
11	283.2879944	0	0	-25.54419327	9.307803154	14.55808735	1.0
12	283.2879944	0	0	-21.3288784	-2.401512384	4.072827339	1.0
13	283.2879944	0	0	-9.67506218	-8.398392677	-7.428990841	1.0
[LeftHandThumb1]
10	24.6609993	-15.75	26.8239994	-0.4890146852	2.201339006	4.818528652	1.0
11	24.6609993	-15.75	26.8239994	-0.4890163243	2.201343775	4.818526268	1.0
12	24.6609993	-15.75	26.8239994	-0.4889051914	2.201617241	4.81860733	1.0
13	24.6609993	-15.75	26.8239994	-0.4889518023	2.201502562	4.818587303	1.0
[LeftHandThumb2]
10	32.29800034	-18.64699936	18.64699936	22.30381584	25.33200836	25.49367905	1.0
11	32.29800034	-18.64699936	18.64699936	12.51497173	18.87873077	20.07999039	1.0
12	32.29800034	-18.64699936	18.64699936	4.07484293	16.1913929	16.38689613	1.0
13	32.29800034	-18.64699936	18.64699936	1.239732623	17.64048958	13.15782928	1.0
[LeftHandThumb3]
10	26.52600098	-15.31499958	15.31499958	-12.83918381	-0.8248083591	11.17127991	1.0
11	26.52600098	-15.31499958	15.31499958	-12.20516872	8.905708313	7.015052795	1.0
12	26.52600098	-15.31499958	15.31499958	-12.28009605	11.73746967	8.549283028	1.0
13	26.52600098	-15.31499958	15.31499958	-12.09049988	13.74059677	12.5289793	1.0
[LeftHandThumb4]
10	19.54599953	-11.28499985	11.28499985	0	0	0	1.0
11	19.54599953	-11.28499985	11.28499985	0	0	0	1.0
12	19.54599953	-11.28499985	11.28499985	0	0	0	1.0
13	19.54599953	-11.28499985	11.28499985	0	0	0	1.0
[LeftHandIndex1]
10	91.09299469	-5.170999527	22.60099792	0.1221465394	0.8218009472	-15.64897346	1.0
11	91.09299469	-5.170999527	22.60099792	-0.3814175129	-1.217394829	-11.89468288	1.0
12	91.09299469	-5.170999527	22.60099792	-0.1632169932	-0.8243903518	-11.57544231	1.0
13	91.09299469	-5.170999527	22.60099792	0.662992537	1.642661691	-14.06574154	1.0
[LeftHandIndex2]
10	36.76399994	0	0	-0.3254058063	1.922640681	-19.2104702	1.0
11	36.76399994	0	0	-0.3613220751	2.022741318	-20.25403595	1.0
12	36.76399994	0	0	-0.344528228	1.976631641	-19.77254486	1.0
13	36.76399994	0	0	-0.3266691864	1.926319838	-19.24877548	1.0
[LeftHandIndex3]
10	28.83100128	0	0	-0.08652633429	1.001962304	-9.870944977	1.0
11	28.83100128	0	0	-0.105747506	1.106709838	-10.91519737	1.0
12	28.83100128	0	0	-0.09667014331	1.058590174	-10.43490028	1.0
13	28.83100128	0	0	-0.08720365167	1.005890369	-9.909992218	1.0
[LeftHandIndex4]
10	23.92700005	0	0	0	0	0	1.0
11	23.92700005	0	0	0	0	0	1.0
12	23.92700005	0	0	0	0	0	1.0
13	23.92700005	0	0	0	0	0	1.0
[LeftHandMiddle1]
10	95.33399963	0	0	-1.369253159	2.653348207	-23.57937241	1.0
11	95.33399963	0	0	-1.27886188	2.770703554	-22.41334152	1.0
12	95.33399963	0	0	-1.225252748	3.595353127	-21.69594955	1.0
13	95.33399963	0	0	-1.348934412	4.028661251	-23.29122353	1.0
[LeftHandMiddle2]
10	36.98199844	0	0	-0.2920499742	1.824148059	-18.19019508	1.0
11	36.98199844	0	0	-0.291719377	1.823158145	-18.18004036	1.0
12	36.98199844	0	0	-0.273917079	1.768042803	-17.61175728	1.0
13	36.98199844	0	0	-0.2712789178	1.759692192	-17.52600288	1.0
[LeftHandMiddle3]
10	29.50900078	0	0	-0.3250188529	1.92153275	-19.19918823	1.0
11	29.50900078	0	0	-0.3247295618	1.920736551	-19.19070435	1.0
12	29.50900078	0	0	-0.3058478236	1.865620017	-18.61898422	1.0
13	29.50900078	0	0	-0.3029005229	1.856861115	-18.52820969	1.0
[LeftHandMiddle4]
10	28.3390007	0	0	0	0	0	1.0
11	28.3390007	0	0	0	0	0	1.0
12	28.3390007	0	0	0	0	0	1.0
13	28.3390007	0	0	0	0	0	1.0
[LeftHandRing1]
10	91.04499817	-0.4390000105	-18.65100098	-1.388186097	3.623773336	-23.77132225	1.0
11	91.04499817	-0.4390000105	-18.65100098	-1.573325753	2.465954781	-26.12306976	1.0
12	91.04499817	-0.4390000105	-18.65100098	-1.520812988	1.939468145	-25.50140762	1.0
13	91.04499817	-0.4390000105	-18.65100098	-1.505142212	1.768137574	-25.31521797	1.0
[LeftHandRing2]
10	31.54000092	0	0	-0.4168522954	2.167225599	-21.77337837	1.0
11	31.54000092	0	0	-0.4755107462	2.308524132	-23.27512741	1.0
12	31.54000092	0	0	-0.5088191032	2.384423971	-24.0888176	1.0
13	31.54000092	0	0	-0.5488889217	2.471987009	-25.03421593	1.0
[LeftHandRing3]
10	29.37700081	0	0	-0.3093411922	1.875930429	-18.72590637	1.0
11	29.37700081	0	0	-0.360733062	2.021133184	-20.237257	1.0
12	29.37700081	0	0	-0.3902496696	2.099384069	-21.05812073	1.0
13	29.37700081	0	0	-0.4256820977	2.189157963	-22.00534439	1.0
[LeftHandRing4]
10	26.47500038	0	0	0	0	0	1.0
11	26.47500038	0	0	0	0	0	1.0
12	26.47500038	0	0	0	0	0	1.0
13	26.47500038	0	0	0	0	0	1.0
[LeftHandPinky1]
10	80.77799988	-4.887000084	-38.06099701	-2.601289272	2.501769304	-33.2484436	1.0
11	80.77799988	-4.887000084	-38.06099701	-2.813901663	-0.5689712763	-32.59512329	1.0
12	80.77799988	-4.887000084	-38.06099701	-2.733883619	-0.503090024	-31.47777748	1.0
13	80.77799988	-4.887000084	-38.06099701	-3.095997572	-0.9311803579	-34.61487579	1.0
[LeftHandPinky2]
10	36	0	0	-0.2898007035	1.817287803	-18.11951447	1.0
11	36	0	0	-0.4276642203	2.194043398	-22.05708885	1.0
12	36	0	0	-0.4934486151	2.349725723	-23.71629715	1.0
13	36	0	0	-0.509683311	2.386294365	-24.10911942	1.0
[LeftHandPinky3]
10	21.14200211	0	0	-0.2611777186	1.727432132	-17.1940937	1.0
11	21.14200211	0	0	-0.3922323585	2.104554653	-21.11246872	1.0
12	21.14200211	0	0	-0.4553789496	2.261214972	-22.77032661	1.0
13	21.14200211	0	0	-0.4702655375	2.296314001	-23.14465523	1.0
[LeftHandPinky4]
10	19.75699997	0	0	0	0	0	1.0
11	19.75699997	0	0	0	0	0	1.0
12	19.75699997	0	0	0	0	0	1.0
13	19.75699997	0	0	0	0	0	1.0
[RightShoulder]
10	-45.70000076	109.4620056	-26.28000069	4.206489563	13.72892284	11.54141045	1.0
11	-45.70000076	109.4620056	-26.28000069	4.406037807	13.91128731	13.23121452	1.0
12	-45.70000076	109.4620056	-26.28000069	4.949620247	15.02238464	16.62682915	1.0
13	-45.70000076	109.4620056	-26.28000069	5.657494068	16.6663208	20.22002411	1.0
[RightArm]
10	-105.9280014	-5.248000145	-22.32099915	15.60927868	3.276860237	56.0668869	1.0
11	-105.9280014	-5.248000145	-22.32099915	11.67239189	1.685027957	56.71755219	1.0
12	-105.9280014	-5.248000145	-22.32099915	10.08451176	1.9446913	55.17460251	1.0
13	-105.9280014	-5.248000145	-22.32099915	10.28045368	6.433512688	51.15328979	1.0
[RightForeArm]
10	-278.414978	0	0	-6.42423629e-06	38.16318512	-1.136836636e-05	1.0
11	-278.414978	0	0	-7.379017006e-06	35.81895065	-1.207321293e-05	1.0
12	-278.414978	0	0	5.573737781e-06	27.13572884	2.062412568e-05	1.0
13	-278.414978	0	0	-1.35983164e-05	16.66835976	-1.143371537e-05	1.0
[RightHand]
10	-283.2879944	0	0.0009999999311	-19.67461777	-5.980029583	-32.06690216	1.0
11	-283.2879944	0	0.0009999999311	-23.51235771	-9.378033638	-26.97956276	1.0
12	-283.2879944	0	0.0009999999311	-28.43996239	-13.70509243	-17.62268829	1.0
13	-283.2879944	0	0.0009999999311	-29.41561699	-14.34454632	-6.785711288	1.0
[RightHandPinky1]
10	-80.76699829	-4.885000229	-38.06000137	-2.132738113	-3.45339179	30.77927017	1.0
11	-80.76699829	-4.885000229	-38.06000137	-1.716184616	-5.046196938	29.57319832	1.0
12	-80.76699829	-4.885000229	-38.06000137	-1.798414111	-5.457782269	31.09173203	1.0
13	-80.76699829	-4.885000229	-38.06000137	-2.085984945	-5.187707901	33.91027832	1.0
[RightHandPinky2]
10	-36	0	0.0009999999311	-0.2820311487	-1.592866778	20.09971619	1.0
11	-36	0	0.0009999999311	-0.3160204887	-1.682904601	21.28892708	1.0
12	-36	0	0.0009999999311	-0.3182900846	-1.688727856	21.36603737	1.0
13	-36	0	0.0009999999311	-0.3088074923	-1.664279819	21.04209709	1.0
[RightHandPinky3]
10	-21.14200211	0	0	-0.2576447427	-1.524533629	19.18357277	1.0
11	-21.14200211	0	0	-0.2907102108	-1.616411328	20.39003181	1.0
12	-21.14200211	0	0	-0.2929326892	-1.622376919	20.46873093	1.0
13	-21.14200211	0	0	-0.2837384045	-1.597520828	20.14128685	1.0
[RightHandPinky4]
10	-19.75699997	0	0	0	0	0	1.0
11	-19.75699997	0	0	0	0	0	1.0
12	-19.75699997	0	0	0	0	0	1.0
13	-19.75699997	0	0	0	0	0	1.0
[RightHandRing1]
10	-91.03599548	-0.4390000105	-18.65100098	-1.447509646	-1.219586253	26.36226082	1.0
11	-91.03599548	-0.4390000105	-18.65100098	-1.408276677	-1.241096258	25.81753349	1.0
12	-91.03599548	-0.4390000105	-18.65100098	-1.387361169	0.1481447965	25.59666443	1.0
13	-91.03599548	-0.4390000105	-18.65100098	-1.306468248	1.075475454	24.50670815	1.0
[RightHandRing2]
10	-31.54000092	0	0	-0.4541018009	-2.001579762	25.56230354	1.0
11	-31.54000092	0	0	-0.4857456684	-2.066409588	26.45398331	1.0
12	-31.54000092	0	0	-0.4807097614	-2.056242704	26.31372452	1.0
13	-31.54000092	0	0	-0.468808502	-2.032043219	25.9804039	1.0
[RightHandRing3]
10	-29.37700081	0	0	-0.3536818624	-1.776579976	22.51685715	1.0
11	-29.37700081	0	0	-0.3818303943	-1.842977524	23.40810966	1.0
12	-29.37700081	0	0	-0.3778226972	-1.833700657	23.28309822	1.0
13	-29.37700081	0	0	-0.3675183058	-1.809554338	22.95868683	1.0
[RightHandRing4]
10	-26.47500038	0	0	0	0	0	1.0
11	-26.47500038	0	0	0	0	0	1.0
12	-26.47500038	0	0	0	0	0	1.0
13	-26.47500038	0	0	0	0	0	1.0
[RightHandMiddle1]
10	-95.32500458	0	0	-0.9588366151	-2.180696249	19.16379547	1.0
11	-95.32500458	0	0	-1.062409163	-1.416904092	20.77773857	1.0
12	-95.32500458	0	0	-1.160749078	-0.2347645909	22.30414581	1.0
13	-95.32500458	0	0	-1.097909808	0.3693749011	21.40791893	1.0
[RightHandMiddle2]
10	-36.98199844	0	0	-0.5196479559	-2.133123159	27.37910652	1.0
11	-36.98199844	0	0	-0.5709329247	-2.229316235	28.72674751	1.0
12	-36.98199844	0	0	-0.5827993751	-2.250799179	29.03015137	1.0
13	-36.98199844	0	0	-0.6266613007	-2.328047276	30.12853622	1.0
[RightHandMiddle3]
10	-29.50900078	0	0	-0.5578993559	-2.207396746	28.38974762	1.0
11	-29.50900078	0	0	-0.6113502383	-2.303472996	29.74906731	1.0
12	-29.50900078	0	0	-0.6245088577	-2.326316118	30.07504272	1.0
13	-29.50900078	0	0	-0.670312345	-2.403607607	31.18589211	1.0
[RightHandMiddle4]
10	-28.3390007	0	0.0009999999311	0	0	0	1.0
11	-28.3390007	0	0.0009999999311	0	0	0	1.0
12	-28.3390007	0	0.0009999999311	0	0	0	1.0
13	-28.3390007	0	0.0009999999311	0	0	0	1.0
[RightHandIndex1]
10	-91.08300018	-5.167999744	22.60099792	-0.9196571112	2.991100788	18.92384529	1.0
11	-91.08300018	-5.167999744	22.60099792	-1.154973626	2.877079487	22.46191216	1.0
12	-91.08300018	-5.167999744	22.60099792	-1.309543252	4.10888052	24.8369503	1.0
13	-91.08300018	-5.167999744	22.60099792	-1.308736682	5.159318924	24.96018791	1.0
[RightHandIndex2]
10	-36.76399994	0	0	-0.2774229944	-1.580207825	19.91357994	1.0
11	-36.76399994	0	0	-0.3157072961	-1.682090282	21.25841522	1.0
12	-36.76399994	0	0	-0.3736813068	-1.824061394	23.15350342	1.0
13	-36.76399994	0	0	-0.4535616636	-2.000445604	25.54683495	1.0
[RightHandIndex3]
10	-28.83100128	0	0	-0.08003312349	-0.8581085801	10.65678787	1.0
11	-28.83100128	0	0	-0.1015908569	-0.9656303525	12.01106167	1.0
12	-28.83100128	0	0	-0.1384038031	-1.124789	14.02885151	1.0
13	-28.83100128	0	0	-0.1913919002	-1.318841457	16.51359177	1.0
[RightHandIndex4]
10	-23.92700005	0	0	0	0	0	1.0
11	-23.92700005	0	0	0	0	0	1.0
12	-23.92700005	0	0	0	0	0	1.0
13	-23.92700005	0	0	0	0	0	1.0
[RightHandThumb1]
10	-24.64799881	-15.72700024	26.82600021	-1.658465028	-0.2891181111	-4.221348286	1.0
11	-24.64799881	-15.72700024	26.82600021	-1.658353209	-0.2894410789	-4.221426964	1.0
12	-24.64799881	-15.72700024	26.82600021	-1.65847671	-0.2890720367	-4.221318245	1.0
13	-24.64799881	-15.72700024	26.82600021	-1.658860445	-0.2879611254	-4.220931053	1.0
[RightHandThumb2]
10	-32.29800034	-18.64699936	18.64699936	18.37534523	-14.53775501	-21.60870361	1.0
11	-32.29800034	-18.64699936	18.64699936	18.38131905	-14.81670856	-21.06703949	1.0
12	-32.29800034	-18.64699936	18.64699936	18.39251709	-14.08366585	-22.63046837	1.0
13	-32.29800034	-18.64699936	18.64699936	18.30700111	-11.51351166	-27.86977386	1.0
[RightHandThumb3]
10	-26.52600098	-15.31399918	15.31399918	-15.05096722	-6.37668848	-16.47600365	1.0
11	-26.52600098	-15.31399918	15.31399918	-14.57755756	-8.138168335	-18.9360733	1.0
12	-26.52600098	-15.31399918	15.31399918	-16.06745529	-5.60560751	-24.04504776	1.0
13	-26.52600098	-15.31399918	15.31399918	-21.25914383	5.983602524	-29.67788315	1.0
[RightHandThumb4]
10	-19.54599953	-11.28499985	11.28499985	0	0	0	1.0
11	-19.54599953	-11.28499985	11.28499985	0	0	0	1.0
12	-19.54599953	-11.28499985	11.28499985	0	0	0	1.0
13	-19.54599953	-11.28499985	11.28499985	0	0	0	1.0
[LeftUpLeg]
10	82.07800293	-67.51699829	-15.99599934	-62.17006683	26.63072205	0.9024213552	1.0
11	82.07800293	-67.51699829	-15.99599934	-75.06462097	27.17349243	-0.8238664269	1.0
12	82.07800293	-67.51699829	-15.99599934	-85.98497772	26.66972542	-3.061942577	1.0
13	82.07800293	-67.51699829	-15.99599934	-93.53585052	26.02955246	-5.368187428	1.0
[LeftLeg]
10	0	-443.7049866	2.845999956	58.16714859	8.942664146	6.263591766	1.0
11	0	-443.7049866	2.845999956	68.69698334	7.34876585	7.827484131	1.0
12	0	-443.7049866	2.845999956	77.00997162	5.780872345	8.229408264	1.0
13	0	-443.7049866	2.845999956	83.23357391	4.673781395	7.532366276	1.0
[LeftFoot]
10	0	-444.2789917	-29.8219986	-15.99801922	1.304179192	-3.623304129	1.0
11	0	-444.2789917	-29.8219986	-19.17397881	0.7360135913	-3.681173801	1.0
12	0	-444.2789917	-29.8219986	-21.65065575	0.4577304125	-2.989716291	1.0
13	0	-444.2789917	-29.8219986	-23.83011436	0.6393944025	-1.819264412	1.0
[LeftToeBase]
10	0	-87.28699493	107.1060028	-4.928532124	4.093655662e-06	5.114816872e-07	1.0
11	0	-87.28699493	107.1060028	-4.928525448	9.104544915e-06	1.793707156e-06	1.0
12	0	-87.28699493	107.1060028	-4.928520203	5.754578979e-06	1.772332439e-06	1.0
13	0	-87.28699493	107.1060028	-4.928518772	9.929693988e-06	-6.260720653e-08	1.0
[RightUpLeg]
10	-82.07800293	-67.51699829	-15.99599934	-58.34963608	1.179652572	2.070119381	1.0
11	-82.07800293	-67.51699829	-15.99599934	-69.8705368	0.4801341295	2.759467125	1.0
12	-82.07800293	-67.51699829	-15.99599934	-79.45981598	-1.981236458	3.565098763	1.0
13	-82.07800293	-67.51699829	-15.99599934	-86.04262543	-4.730854988	4.163680553	1.0
[RightLeg]
10	0	-443.7049866	2.861999989	53.31038284	-2.638861179	-1.479544044	1.0
11	0	-443.7049866	2.861999989	63.32382965	-3.207877159	0.3417419493	1.0
12	0	-443.7049866	2.861999989	71.76084137	-4.088862419	2.529584885	1.0
13	0	-443.7049866	2.861999989	78.23087311	-4.932618618	4.444029331	1.0
[RightFoot]
10	0	-444.2770081	-29.83799934	-15.91922092	0.4245685339	3.417864799	1.0
11	0	-444.2770081	-29.83799934	-18.97294426	0.3037860096	2.63776803	1.0
12	0	-444.2770081	-29.83799934	-21.61647606	0.1272308677	1.665329099	1.0
13	0	-444.2770081	-29.83799934	-23.81771278	-0.02733764425	0.8768865466	1.0
[RightToeBase]
10	0	-87.28699493	107.1060028	-7.399972916	1.380414869e-05	-1.079252002e-06	1.0
11	0	-87.28699493	107.1060028	-7.372110367	-1.558519102e-06	-2.139489197e-06	1.0
12	0	-87.28699493	107.1060028	-7.322894573	-4.522034033e-06	1.134673653e-06	1.0
13	0	-87.28699493	107.1060028	-7.222793102	1.069951759e-05	-4.249397534e-06	1.0
[EndOfFile]
